<?xml version="1.0" standalone="no"?><!DOCTYPE svg PUBLIC "-//W3C//DTD SVG 1.1//EN" "http://www.w3.org/Graphics/SVG/1.1/DTD/svg11.dtd"><svg t="1505191130714" class="icon" style="" viewBox="0 0 1024 1024" version="1.1" xmlns="http://www.w3.org/2000/svg" p-id="2744" xmlns:xlink="http://www.w3.org/1999/xlink" width="128" height="128"><defs><style type="text/css"></style></defs><path d="M512 959.352c246.104 0 445.611-200.286 445.611-447.352S758.104 64.648 512 64.648 66.389 264.935 66.389 512 265.896 959.352 512 959.352zM338.197 232.405l60.774 39.891c3.105 3.152 2.336 6.27-2.336 9.387-7.816 3.152-16.362 9.387-25.713 18.775l-9.351 11.733 79.475-4.694 30.389-32.852 42.075 35.197 2.336 4.694c-1.57 1.576-3.14 2.345-4.675 2.345l-102.849 4.694c20.234 12.54 30.389 25.814 30.389 39.891-1.57 12.54-8.581 20.351-21.038 23.465-12.491 1.576-18.702-1.541-18.702-9.387-1.57-26.582-5.48-43.778-11.687-51.627l-39.736 2.345c-37.4 34.429-77.136 69.63-119.211 105.599-3.14 3.152-4.675 1.576-4.675-4.694 52.957-67.239 91.161-132.174 114.535-194.762z m3.291 262.47l-4.675 232.315c-1.57 21.889-13.257 44.585-35.061 68.053-6.246 4.694-10.155 4.694-11.687 0l4.675-171.304v-93.863l-2.336-84.48 53.762 21.12c1.535 0 3.105 0.807 4.675 2.345l-2.336 4.694-7.017 21.12z m23.74-115.106c45.181 14.081 67.789 26.621 67.789 37.546-3.14 18.775-10.155 31.311-21.038 37.546-7.816 4.694-14.026 2.345-18.702-7.039-12.491-34.394-23.374-55.514-32.725-63.36-1.569-4.693 0.001-6.234 4.676-4.693z m74.664 280.318c-4.675 14.081-13.257 25.814-25.713 35.197-6.245 4.694-10.155 3.152-11.687-4.694V488.784c-1.57-4.694 0-5.463 4.675-2.345l32.725 21.12 107.524-4.694 18.702-25.814 46.751 25.814c1.532 0 2.336 1.576 2.336 4.694l-14.026 21.12 2.336 100.906c-1.57 15.657-10.921 34.429-28.049 56.317-7.816 6.27-14.026 6.27-18.702 0-1.57-4.694-4.675-10.156-9.351-16.426-3.14-6.232-5.48-10.925-7.011-14.081l-100.51 4.692zM549.052 512l-112.2 2.345v58.666l95.838-4.694c3.105 0 4.675 1.576 4.675 4.694 0 3.152-2.336 4.694-7.011 4.694l-93.498 4.694 2.336 65.705 109.864-4.694V512h-0.004z m4.582-74.239c-29.623 0-53.762 2.345-72.46 7.039l-16.362-16.426 182.324-9.387 23.374-25.814 49.087 30.507c0 1.576 0.766 2.345 2.336 2.345 1.532 1.576 0.766 3.152-2.336 4.694l-18.702 23.465 2.336 133.758 2.336 93.863c3.105 43.778-20.272 82.131-70.125 114.983-3.14 1.541-5.48 1.541-7.011 0-1.57-1.576-1.57-3.925 0-7.039-1.57-21.927-9.351-38.353-23.374-49.279-1.57-1.576-2.336-3.152-2.336-4.694 0-1.576 0.766-2.345 2.336-2.345 32.725 1.541 47.517-6.27 44.411-23.465l-2.336-276.9-93.498 4.695z m-2.389-212.346l58.438 35.197c3.105 1.576 2.336 3.925-2.336 7.039-9.351 3.152-17.167 9.387-23.374 18.775-1.57 1.576-3.14 3.925-4.675 7.039-3.14 4.694-6.246 8.615-9.351 11.733l100.513-4.694 30.389-32.852 42.075 35.197c3.105 3.152 3.105 4.694 0 4.694l-128.562 7.039c31.154 17.234 46.751 32.852 46.751 46.933-3.14 14.081-12.491 25.041-28.049 32.852-12.491 1.576-18.702-2.345-18.702-11.733-1.57-32.852-7.011-55.514-16.362-68.053l-37.4 2.345c-4.675 4.694-11.687 12.54-21.038 23.465-18.702 23.465-35.061 42.24-49.087 56.317-3.14 1.576-5.48 2.345-7.011 2.345-1.57 0-1.57-1.541 0-4.694 31.147-65.693 53.755-122.014 67.781-168.944z" p-id="2745" fill="#2c2c2c"></path></svg>